<?xml version="1.0" encoding="UTF-8"?>
<svg width="50px" height="50px" viewBox="0 0 50 50" version="1.1" xmlns="http://www.w3.org/2000/svg" xmlns:xlink="http://www.w3.org/1999/xlink">
    <title>voice_icon</title>
    <g id="Page-1" stroke="none" stroke-width="1" fill="none" fill-rule="evenodd">
        <g id="homepage-copy-2" transform="translate(-835.000000, -1248.000000)">
            <g id="voice_icon" transform="translate(835.000000, 1248.000000)">
                <circle id="Oval" fill="#0B0B0B" cx="25" cy="25" r="25"></circle>
                <g id="noun_Sound_2801255-Copy" transform="translate(13.000000, 13.000000)" fill="#FFFFFF" fill-rule="nonzero">
                    <path d="M20.0765306,21.4090019 C19.744898,21.4090019 19.3877551,21.2814509 19.1326531,21.0263488 C18.622449,20.5161447 18.622449,19.6487978 19.1326531,19.1385937 C22.7806122,15.4906345 22.7806122,9.54675699 19.1326531,5.8732876 C18.622449,5.36308352 18.622449,4.49573658 19.1326531,3.9855325 C19.6428571,3.47532842 20.5102041,3.47532842 21.0204082,3.9855325 C23.2908163,6.25594066 24.5408163,9.29165495 24.5408163,12.5059407 C24.5408163,15.7202264 23.2908163,18.7559407 21.0204082,21.0263488 C20.7653061,21.2814509 20.4081633,21.4090019 20.0765306,21.4090019 Z M15.3061224,18.8834917 C14.9744898,18.8834917 14.6173469,18.7559407 14.3622449,18.5008386 C13.8520408,17.9906345 13.8520408,17.1232876 14.3622449,16.6130835 C16.6326531,14.3426754 16.6326531,10.669206 14.3622449,8.3987978 C13.8520408,7.88859372 13.8520408,7.02124678 14.3622449,6.5110427 C14.872449,6.00083862 15.7397959,6.00083862 16.25,6.5110427 C19.5663265,9.82736923 19.5663265,15.2100223 16.25,18.5008386 C15.994898,18.7559407 15.6632653,18.8834917 15.3061224,18.8834917 Z M11.1989796,0.414103925 C11.9132653,-0.300181789 12.5,-0.0705899522 12.5,0.949818211 L12.5,24.0365529 C12.5,25.0569611 11.9132653,25.2865529 11.1989796,24.5722672 L4.46428571,17.8630835 L2.22044605e-13,17.8630835 L2.22044605e-13,7.1487978 L4.46428571,7.1487978 L11.1989796,0.414103925 Z" id="Shape"></path>
                </g>
            </g>
        </g>
    </g>
</svg>