<?xml version="1.0" encoding="UTF-8"?>
<svg width="2064px" height="806px" viewBox="0 0 2064 806" version="1.1" xmlns="http://www.w3.org/2000/svg" xmlns:xlink="http://www.w3.org/1999/xlink">
    <title>welsh_bg</title>
    <g id="Page-1" stroke="none" stroke-width="1" fill="none" fill-rule="evenodd">
        <g id="welsh_bg" fill="#FFFFFF" fill-rule="nonzero">
            <path d="M1655.85598,399.833526 C1406.45844,245.359926 1623.0135,7 1623.0135,7 C1280.22018,46.897155 1132.42905,485.76586 1410.56375,711.849738 L1412.61641,631.032424 C1465.98543,690.366655 1531.67037,695.481675 1531.67037,695.481675 C1489.59095,660.69954 1489.59095,582.951238 1489.59095,582.951238 C1557.32856,658.653532 1630.1978,631.032424 1630.1978,631.032424 C1545.01263,603.411317 1551.17059,516.455979 1551.17059,516.455979 C1699.98805,542.031079 1693.83009,646.377484 1693.83009,646.377484 C1644.56638,792.667052 1472.14339,754.815905 1472.14339,754.815905 C1679.46151,880.645394 1958.62254,760.953929 2037.64974,543.054083 C2117.70327,326.17724 2008.91257,66.3342305 1798.51547,115.438421 C1793.38384,69.4032424 1846.75286,32.5750994 1846.75286,32.5750994 C1725.64624,71.4492504 1733.85685,128.737473 1733.85685,128.737473 L1691.77743,73.4952583 L1702.04071,166.58862 L1676.38252,275.027041 C1701.01438,351.752339 1749.25176,327.200244 1779.01526,266.84301 C1956.56988,233.083878 1881.64799,521.570999 1655.85598,399.833526 Z" id="Path-Copy" opacity="0.434756324"></path>
            <path d="M390.855979,392.833526 C141.458442,238.359926 358.013505,0 358.013505,0 C15.2201831,39.897155 -132.57095,478.76586 145.563751,704.849738 L147.616406,624.032424 C200.985426,683.366655 266.670374,688.481675 266.670374,688.481675 C224.590954,653.69954 224.590954,575.951238 224.590954,575.951238 C292.328557,651.653532 365.197796,624.032424 365.197796,624.032424 C280.012629,596.411317 286.170593,509.455979 286.170593,509.455979 C434.988053,535.031079 428.830089,639.377484 428.830089,639.377484 C379.566378,785.667052 207.14339,747.815905 207.14339,747.815905 C414.461507,873.645394 693.622535,753.953929 772.649738,536.054083 C852.703268,319.17724 743.912573,59.3342305 533.515475,108.438421 C528.383838,62.4032424 581.752858,25.5750994 581.752858,25.5750994 C460.646236,64.4492504 468.856854,121.737473 468.856854,121.737473 L426.777434,66.4952583 L437.040708,159.58862 L411.382525,268.027041 C436.01438,344.752339 484.251764,320.200244 514.015256,259.84301 C691.569881,226.083878 616.647987,514.570999 390.855979,392.833526 Z" id="Path-Copy" opacity="0.434756324" transform="translate(399.500000, 399.500000) scale(-1, 1) translate(-399.500000, -399.500000) "></path>
            <g id="Combined-Shape" opacity="0.45" transform="translate(957.000000, 482.000000)">
                <path d="M110.305213,65.5784527 C110.892853,66.0169847 111.468395,66.4657549 112.03011,66.9298821 C119.723009,73.301394 124.253022,81.8502087 125.134482,91.6497782 C126.131741,102.754706 122.573063,115.335626 114.555233,129.042738 L114.555233,129.042738 L114.031542,130 L112.890829,129.993175 C96.8586276,129.993175 84.0428904,126.747696 74.7996589,120.342058 C66.641833,114.688919 61.4101086,106.541097 59.6662005,96.7756543 C58.361294,89.4741816 59.0612769,81.6659229 61.3150492,74.0999659 C62.5404514,74.3763946 63.7779521,74.6238154 65.0327364,74.8302838 C62.8964921,81.9269945 62.2241628,89.2608878 63.4478367,96.1204158 C66.8682472,115.260547 84.0152368,125.908172 111.774313,126.188014 C125.407562,102.316174 124.64363,82.3296931 109.562022,69.8357966 C108.704759,69.1259549 107.802558,68.458772 106.879618,67.8188906 C108.068725,67.1158743 109.207709,66.3650802 110.305213,65.5784527 Z M26.7065098,94.1103352 C27.0141566,94.2604941 27.320075,94.4072402 27.6294502,94.5471609 C28.5835011,94.9873993 29.5461936,95.3832725 30.5157996,95.7398997 C30.6281426,104.805739 33.8567059,115.076261 40.2032179,126.188014 C53.131298,126.058331 63.7589402,123.683091 71.7663995,119.243168 C72.5648985,119.893287 73.3841378,120.522931 74.2465859,121.120153 C74.5265791,121.312971 74.8203991,121.497257 75.1055773,121.683249 C66.0559213,127.19476 53.959179,129.994881 39.0884303,129.994881 L39.0884303,129.994881 L37.8993234,129.928333 L37.4240264,129.044444 C29.9921087,116.335547 26.3988629,104.600977 26.7065098,94.1103352 Z M88.966968,92.8237471 C90.1699016,93.4875174 91.3935755,94.0881527 92.6328046,94.6307721 C92.5429302,95.3508519 92.4409574,96.067519 92.3130593,96.7773607 C90.7903804,105.309112 86.6025812,112.603759 80.1298994,118.08285 C78.9563477,117.407135 77.8381034,116.683643 76.7872648,115.914079 C83.061186,110.974195 87.062323,104.33308 88.531423,96.1204158 C88.7249986,95.0334707 88.8649952,93.9328748 88.966968,92.8237471 Z M28.0338848,36.3043079 C37.0714424,32.1561704 46.8349082,31.7568845 56.2717153,35.1474024 C63.326852,37.6813325 69.8237307,42.1758591 75.3302632,47.8750689 C74.4730002,48.7896726 73.6416624,49.731578 72.8379783,50.6973722 C67.6805731,45.327488 61.5829439,41.0923267 54.958167,38.7119681 C36.4578771,32.0657339 18.5434988,41.4045888 4.41939849,64.9965873 C18.5434988,88.5885858 36.4578771,97.9291471 54.958167,91.2812065 C56.010734,90.9041031 57.0477458,90.4775156 58.0709307,90.0082692 C58.0916709,91.3716431 58.1763602,92.7179534 58.3163568,94.0472003 C57.6405708,94.3304544 56.9578714,94.5966451 56.2717153,94.8440658 C52.0424356,96.3678366 47.7440218,97.1237498 43.4767184,97.1237498 C38.2259821,97.1237498 33.0201831,95.9770824 28.0338848,93.6871604 C17.795122,88.9878718 8.53979192,79.6541359 0.52196259,65.945318 L0.52196259,65.945318 L5.68434189e-14,64.9965873 L0.52196259,64.0478566 C8.53979192,50.3390387 17.795122,41.0053028 28.0338848,36.3043079 Z M79.1499232,79.294096 C84.3056001,84.6622739 90.3963159,88.9025543 97.0193644,91.2812065 C100.911615,92.6821201 104.779669,93.3714856 108.588959,93.3714856 C112.550344,93.3714856 116.449508,92.6172788 120.255341,91.1446985 C120.402251,92.4244612 120.476571,93.7383509 120.483484,95.0744231 C116.568765,96.4343843 112.548616,97.1237498 108.500813,97.1237498 C104.23351,97.1237498 99.9368242,96.3678366 95.7058161,94.8440658 C88.6506794,92.3118421 82.1624424,87.8156092 76.6576383,82.1163993 C77.513173,81.2069147 78.3427824,80.263303 79.1499232,79.294096 Z M126.15421,37.4049038 C135.516698,42.3857402 144.016738,51.3338409 151.452112,64.0478566 L151.452112,64.0478566 L152,64.9948809 L151.452112,65.9436117 C144.016738,78.6593337 135.516698,87.6040217 126.15421,92.5865645 C126.131741,92.2452944 126.119643,91.902318 126.088533,91.566167 C125.99693,90.5338251 125.855205,89.5168404 125.684098,88.5100937 C133.580943,83.8841782 140.978293,75.9820702 147.556405,64.9948809 C140.980022,54.0093981 133.580943,46.1107028 125.68237,41.4830809 C125.853477,40.4780406 125.995202,39.4593495 126.088533,38.4253012 C126.117915,38.0874439 126.131741,37.7444675 126.15421,37.4049038 Z M82.4251521,66.0340483 C83.036989,67.2694458 83.6090739,68.5287323 84.1362215,69.808495 L84.1362215,69.808495 L84.3332537,70.281154 C79.2017738,78.9204053 72.0947865,86.4010448 63.8609131,91.2573176 C63.7831372,89.7881501 63.7900506,88.2950936 63.8678265,86.7952117 C71.4812212,81.8075499 77.9400762,74.4088153 82.4251521,66.0340483 Z M60.6427199,56.9972173 C61.0160441,58.1865435 61.4256638,59.3724569 61.8733072,60.5498386 C54.5848428,62.271546 47.8166127,65.3600399 42.4155097,69.8357966 C35.9393712,75.2005618 32.1110694,81.9525897 30.9202342,89.7983882 C29.7190289,89.281364 28.5264654,88.6926732 27.344272,88.0289029 C28.9067031,79.7445725 33.215487,72.5062347 39.9456933,66.9298821 C45.6993803,62.1640459 52.8910569,58.8537264 60.6427199,56.9972173 Z M90.6728524,74.1084976 C92.0883734,78.8640958 92.8868725,83.7203686 92.9594633,88.4862048 C91.6303599,87.8139028 90.3237251,87.0528706 89.0430155,86.2269971 C88.8010461,82.4337805 88.0716812,78.6013178 86.9413383,74.8354028 C88.1995793,74.6289344 89.4457218,74.3849264 90.6728524,74.1084976 Z M71.1251805,75.5469509 C72.3281142,75.6339747 73.5345045,75.6800462 74.7408949,75.7073478 C74.134243,76.4308403 73.517221,77.140682 72.8846438,77.8266348 C72.283177,77.0792534 71.6938086,76.3233402 71.1251805,75.5469509 Z M50.8256751,65.535794 C52.6127921,66.4094453 54.4724999,67.1807156 56.3857866,67.8478986 C63.2352493,70.2367889 70.7985218,71.289607 78.2788334,71.0200037 C77.4008301,72.3134172 76.4796179,73.5658782 75.5117403,74.7756806 C68.6916596,74.7244901 61.8888624,73.6477831 55.6149412,71.5506786 C52.5643982,70.5268685 49.6469384,69.2607566 46.9092274,67.757462 C48.1570982,66.9605964 49.4654614,66.2200404 50.8256751,65.535794 Z M112.889101,-8.66862138e-13 L113.965865,0.0290079542 L114.551777,0.947024388 C122.569606,14.6558423 126.128285,27.238469 125.131025,38.3416901 C124.251293,48.1412595 119.72128,56.6900743 112.028381,63.0632925 C104.219683,69.5320663 93.7493206,73.3150448 82.82613,74.4275851 C83.7300586,73.10687 84.58905,71.7469089 85.4031042,70.3545271 C94.4631304,68.9740897 103.013292,65.5801591 109.560293,60.157378 C124.640173,47.6651878 125.405833,27.677001 111.772585,3.80516105 C84.0135084,4.08500249 66.8665188,14.732628 63.4461084,33.8744651 C63.2525328,34.9597039 63.1108079,36.0568871 63.0105634,37.1626021 C61.8007164,36.4971255 60.5787708,35.8964902 59.3464552,35.3555771 C59.4363295,34.63891 59.5383023,33.9239493 59.6644721,33.2158139 C61.4083802,23.4520778 66.6401046,15.3042554 74.7979305,9.651117 C84.0411621,3.24718452 96.8568992,-8.66862138e-13 112.889101,-8.66862138e-13 L112.889101,-8.66862138e-13 Z M59.0197965,41.5018507 C60.3437148,42.1690337 61.6503497,42.9164151 62.9345159,43.7388759 C62.9898232,44.5835193 63.0606857,45.429869 63.1592018,46.2796314 C64.1218944,54.4564618 67.2277446,62.7049589 71.842447,69.9671856 C70.2696458,69.8613919 68.7072147,69.6941695 67.1603388,69.4706376 C63.1851271,62.5548001 60.4750696,54.9410653 59.4570698,47.3597511 C59.1943601,45.4008611 59.0509068,43.4436773 59.0197965,41.5018507 Z M79.0825175,52.1307064 C83.1095799,57.1388444 86.4245608,62.8107526 88.8062312,68.7556769 C87.5635454,69.0252802 86.3053045,69.2590502 85.0263233,69.4467487 C82.9056342,64.3072218 80.040025,59.3946394 76.5885042,55.0110256 C77.3887316,54.0247552 78.2200694,53.0623737 79.0825175,52.1307064 Z M64.2878162,66.1415483 C64.8132355,67.2063109 65.3714935,68.2540099 65.9504918,69.2897645 C65.0171812,69.136193 64.0942407,68.9519072 63.179942,68.7556769 C63.532526,67.8803192 63.8954801,67.0066679 64.2878162,66.1415483 Z M82.8399568,55.582653 C90.7696401,56.391463 98.4608107,58.6011866 105.068304,62.2357126 C103.818705,63.0342845 102.510342,63.7765469 101.146671,64.4607933 C96.3245665,62.0974982 90.964944,60.498648 85.416931,59.650592 C84.6063335,58.2633292 83.7456137,56.9084871 82.8399568,55.582653 Z M30.9202342,40.1964928 C32.1110694,48.0388785 35.9393712,54.7909065 42.4155097,60.157378 C43.2727728,60.8672197 44.1715163,61.5344026 45.0944568,62.174284 C43.9053499,62.8773003 42.7663653,63.6280944 41.6705896,64.4147219 C41.0829496,63.9778962 40.507408,63.5291261 39.9474217,63.0632925 C33.2189437,57.4886462 28.9084314,50.2503085 27.3460003,41.965978 C28.5264654,41.3005014 29.7190289,40.7118106 30.9202342,40.1964928 Z M71.8510887,60.0191636 C71.0422196,61.2921009 70.2765592,62.5957525 69.5662062,63.923293 C68.9872079,62.7698002 68.4600603,61.5924186 67.9622946,60.4047988 C69.2464609,60.2358701 70.5444539,60.1061875 71.8510887,60.0191636 Z M86.004571,60.6999974 C86.9482517,60.8552752 87.885019,61.0242039 88.8062312,61.2221406 C88.4519188,62.1094427 88.0734095,62.9899194 87.6776167,63.8635707 C87.1521974,62.7936891 86.5887543,61.740871 86.004571,60.6999974 Z M75.5463074,55.2379702 L75.8280289,55.5963038 C76.6939337,56.693487 77.5183581,57.8213845 78.3030303,58.9765836 C74.7080562,58.8451947 71.0940702,59.017536 67.5492183,59.5004332 C67.0773779,58.3162261 66.6539314,57.1234873 66.2685087,55.9273357 C69.3242367,55.4819783 72.4335437,55.2584464 75.5463074,55.2379702 L75.5463074,55.2379702 Z M80.1298994,11.9120311 C86.6025812,17.3894154 90.7903804,24.685769 92.3113309,33.2158139 C93.6162374,40.5206993 92.9248962,48.3323708 90.6728524,55.8966214 C89.4439934,55.6201927 88.2013076,55.377891 86.9430667,55.1697162 C89.0793109,48.0712992 89.7533686,40.7339931 88.5296947,33.8744651 C87.062323,25.6618014 83.061186,19.0189799 76.7872648,14.0790959 C77.8398317,13.3095319 78.9563477,12.5877458 80.1298994,11.9120311 Z M88.1045199,38.7512141 C88.1771107,40.2237944 88.1701973,41.7134382 88.0837796,43.2184391 C87.1141736,43.8566141 86.1601228,44.5323288 85.2268122,45.2438768 C81.8478822,47.8272911 78.742032,50.8918961 75.9818523,54.2858268 L75.9818523,54.2858268 L75.5393939,54.2875331 C74.0530104,54.2977712 72.576997,54.3574935 71.1165387,54.4598745 C74.4021377,49.9687607 78.2390812,45.9247106 82.4891011,42.5870895 C84.2900449,41.1725251 86.1687646,39.8927624 88.1045199,38.7512141 Z M95.7040878,35.1474024 C103.948331,32.1851784 112.443186,32.1169244 120.481756,34.9136324 C120.474842,36.2548237 120.400523,37.5704198 120.253613,38.8553015 C112.783672,35.9613315 104.955961,35.8606568 97.017636,38.7119681 C95.9667974,39.0890715 94.931514,39.5139527 93.9083291,39.9814927 C93.8841321,38.6198252 93.8011712,37.2752212 93.6594462,35.949387 C94.3352322,35.6661329 95.0179317,35.3948232 95.7040878,35.1474024 Z M39.0884303,-6.50146604e-13 C53.959179,-6.50146604e-13 66.0559213,2.79841441 75.1055773,8.31163206 C74.8203991,8.49933059 74.5265791,8.68020371 74.2465859,8.87472764 C73.3858662,9.47195023 72.5631702,10.1015935 71.7663995,10.7517129 C63.7572119,6.31178957 53.1295696,3.93484367 40.2032179,3.80516105 C33.8584342,14.9169139 30.6281426,25.1891424 30.5157996,34.2532749 C29.5461936,34.6116084 28.5852294,35.009188 27.6294502,35.4460137 C27.320075,35.5876408 27.0124282,35.7343869 26.7065098,35.8845457 C26.3988629,25.3939044 29.9921087,13.655921 37.4240264,0.948730738 L37.4240264,0.948730738 L37.9304338,0.0494841572 L39.0884303,-6.50146604e-13 Z" id="Shape"></path>
            </g>
        </g>
    </g>
</svg>